<?xml version="1.0" encoding="UTF-8"?>
<svg id="Camada_2" data-name="Camada 2" xmlns="http://www.w3.org/2000/svg" viewBox="0 0 235.98 251.66">
  <defs>
    <style>
      .cls-1 {
        fill: #fff;
      }
    </style>
  </defs>
  <g id="Camada_1-2" data-name="Camada 1">
    <path class="cls-1" d="M209.24,67.34l.14,182.56c-1.04,1.84-8.33,1.4-8.5-.89l-1.33-18.27c-46.24,27.21-103.92,29.08-148.42-1.52C-7.08,189.22-17.18,99.32,29.05,43.51,51.72,16.13,82.18.68,117.8.02c46.6-.86,99.82,20.71,118.18,66.95C203.32,28.69,166.35,1.08,115.99,5.85c-35.31,2.38-65.11,22.95-81.48,53.67l62.71,128.14,99.03-119.88,12.99-.44ZM199.79,74.66l-98.04,119.01c-3.42,2.84-13.78,3.23-15.87-1.03L27.87,74.28c-16.08,35.99-13.21,75.92,3.07,110.64,30.76,65.57,110.51,78.63,169.34,37.76l-.5-148.02Z"/>
    <path class="cls-1" d="M216.17,216.23c-3.3-5.76,9.65-24.13,19.45-30.74-1.21,14.2-9.84,21.43-19.45,30.74Z"/>
  </g>
</svg>